<mxfile host="app.diagrams.net" modified="2022-10-05T10:59:36.052Z" agent="5.0 (Windows NT 6.1; Win64; x64) AppleWebKit/537.36 (KHTML, like Gecko) Chrome/106.0.0.0 Safari/537.36" etag="4pVJPbW94k7mpAo1CDwb" version="20.4.0" type="github">
  <diagram id="S5eaGNuj-hXeYqFMLyPz" name="ショッピングカート機能（ユーザー用）">
    <mxGraphModel dx="1662" dy="912" grid="1" gridSize="10" guides="1" tooltips="1" connect="1" arrows="1" fold="1" page="1" pageScale="1" pageWidth="827" pageHeight="1169" math="0" shadow="0">
      <root>
        <mxCell id="0" />
        <mxCell id="1" parent="0" />
        <mxCell id="p0p2ZywvvKNbMBUHe0Y9-1" value="&lt;&lt; Controller&gt;&gt;&#xa;ECCartUserController" style="swimlane;fontStyle=1;align=center;verticalAlign=middle;childLayout=stackLayout;horizontal=1;startSize=40;horizontalStack=0;resizeParent=1;resizeLast=0;collapsible=1;marginBottom=0;rounded=0;shadow=0;strokeWidth=1;" vertex="1" parent="1">
          <mxGeometry x="40" y="40" width="600" height="240" as="geometry">
            <mxRectangle x="260" y="20" width="170" height="26" as="alternateBounds" />
          </mxGeometry>
        </mxCell>
        <mxCell id="p0p2ZywvvKNbMBUHe0Y9-2" value="&lt;p style=&quot;margin-top: 0pt; margin-bottom: 0pt; margin-left: 0in; direction: ltr; unicode-bidi: embed; word-break: normal;&quot;&gt;- categories :&amp;nbsp;Categories&lt;/p&gt;&lt;p style=&quot;margin-top: 0pt; margin-bottom: 0pt; margin-left: 0in; direction: ltr; unicode-bidi: embed; word-break: normal;&quot;&gt;-&amp;nbsp;session :&amp;nbsp;HttpSession&lt;/p&gt;&lt;p style=&quot;margin-top: 0pt; margin-bottom: 0pt; margin-left: 0in; direction: ltr; unicode-bidi: embed; word-break: normal;&quot;&gt;-&amp;nbsp;userController :&amp;nbsp;UserController&lt;/p&gt;&lt;p style=&quot;margin-top: 0pt; margin-bottom: 0pt; margin-left: 0in; direction: ltr; unicode-bidi: embed; word-break: normal;&quot;&gt;-&amp;nbsp;productService :&amp;nbsp;ProductService&lt;/p&gt;&lt;p style=&quot;margin-top: 0pt; margin-bottom: 0pt; margin-left: 0in; direction: ltr; unicode-bidi: embed; word-break: normal;&quot;&gt;-&amp;nbsp;userService :&amp;nbsp;UserService&lt;/p&gt;&lt;p style=&quot;margin-top: 0pt; margin-bottom: 0pt; margin-left: 0in; direction: ltr; unicode-bidi: embed; word-break: normal;&quot;&gt;-&amp;nbsp;orderService :&amp;nbsp;OrderService&lt;/p&gt;&lt;p style=&quot;margin-top: 0pt; margin-bottom: 0pt; margin-left: 0in; direction: ltr; unicode-bidi: embed; word-break: normal;&quot;&gt;-&amp;nbsp;cart :&amp;nbsp;Cart&lt;/p&gt;" style="text;align=left;verticalAlign=middle;resizable=0;points=[];autosize=1;strokeColor=none;fillColor=none;spacing=2;html=1;spacingTop=-1;" vertex="1" parent="p0p2ZywvvKNbMBUHe0Y9-1">
          <mxGeometry y="40" width="600" height="110" as="geometry" />
        </mxCell>
        <mxCell id="p0p2ZywvvKNbMBUHe0Y9-3" value="" style="line;html=1;strokeWidth=1;align=left;verticalAlign=middle;spacingTop=-1;spacingLeft=3;spacingRight=3;rotatable=0;labelPosition=right;points=[];portConstraint=eastwest;" vertex="1" parent="p0p2ZywvvKNbMBUHe0Y9-1">
          <mxGeometry y="150" width="600" height="10" as="geometry" />
        </mxCell>
        <mxCell id="p0p2ZywvvKNbMBUHe0Y9-4" value="&lt;p style=&quot;margin-top: 0pt; margin-bottom: 0pt; margin-left: 0in; direction: ltr; unicode-bidi: embed; word-break: normal;&quot;&gt;+&amp;nbsp;getLoginUserId() : Integer&lt;/p&gt;&lt;p style=&quot;margin-top: 0pt; margin-bottom: 0pt; margin-left: 0in; direction: ltr; unicode-bidi: embed; word-break: normal;&quot;&gt;+&amp;nbsp;getAddToCart ( model : Model, request : HttpServletRequest) : String&lt;/p&gt;&lt;p style=&quot;margin-top: 0pt; margin-bottom: 0pt; margin-left: 0in; direction: ltr; unicode-bidi: embed; word-break: normal;&quot;&gt;+&amp;nbsp;postAddToCart ( productId : Integer, request : HttpServletRequest, model : Model, form : CartForm ) : String&lt;/p&gt;&lt;p style=&quot;margin-top: 0pt; margin-bottom: 0pt; margin-left: 0in; direction: ltr; unicode-bidi: embed; word-break: normal;&quot;&gt;+&amp;nbsp;postCartItemRemove ( mapListKey : Integer ) : String&lt;/p&gt;&lt;p style=&quot;margin-top: 0pt; margin-bottom: 0pt; margin-left: 0in; direction: ltr; unicode-bidi: embed; word-break: normal;&quot;&gt;+&amp;nbsp;postPayment ( total : Integer, model : Model ) : String&lt;/p&gt;" style="text;align=left;verticalAlign=middle;resizable=0;points=[];autosize=1;strokeColor=none;fillColor=none;spacing=2;html=1;spacingTop=-1;" vertex="1" parent="p0p2ZywvvKNbMBUHe0Y9-1">
          <mxGeometry y="160" width="600" height="80" as="geometry" />
        </mxCell>
        <mxCell id="p0p2ZywvvKNbMBUHe0Y9-5" value="&lt;&lt; Component &gt;&gt;&#xa;Cart" style="swimlane;fontStyle=1;align=center;verticalAlign=middle;childLayout=stackLayout;horizontal=1;startSize=40;horizontalStack=0;resizeParent=1;resizeLast=0;collapsible=1;marginBottom=0;rounded=0;shadow=0;strokeWidth=1;" vertex="1" parent="1">
          <mxGeometry x="1680" y="360" width="530" height="100" as="geometry">
            <mxRectangle x="260" y="20" width="170" height="26" as="alternateBounds" />
          </mxGeometry>
        </mxCell>
        <mxCell id="p0p2ZywvvKNbMBUHe0Y9-6" value="&lt;p style=&quot;margin-top: 0pt; margin-bottom: 0pt; margin-left: 0in; direction: ltr; unicode-bidi: embed; word-break: normal;&quot;&gt;- session :&amp;nbsp;HttpSession&lt;/p&gt;" style="text;align=left;verticalAlign=middle;resizable=0;points=[];autosize=1;strokeColor=none;fillColor=none;spacing=2;html=1;spacingTop=-1;" vertex="1" parent="p0p2ZywvvKNbMBUHe0Y9-5">
          <mxGeometry y="40" width="530" height="20" as="geometry" />
        </mxCell>
        <mxCell id="p0p2ZywvvKNbMBUHe0Y9-7" value="" style="line;html=1;strokeWidth=1;align=left;verticalAlign=middle;spacingTop=-1;spacingLeft=3;spacingRight=3;rotatable=0;labelPosition=right;points=[];portConstraint=eastwest;" vertex="1" parent="p0p2ZywvvKNbMBUHe0Y9-5">
          <mxGeometry y="60" width="530" height="10" as="geometry" />
        </mxCell>
        <mxCell id="p0p2ZywvvKNbMBUHe0Y9-8" value="&lt;p style=&quot;margin-top: 0pt; margin-bottom: 0pt; margin-left: 0in; direction: ltr; unicode-bidi: embed; word-break: normal;&quot;&gt;+&amp;nbsp;setToSessionCart ( productId : Integer, request : HttpServletRequest, form : CartForm ) : void&lt;/p&gt;" style="text;align=left;verticalAlign=middle;resizable=0;points=[];autosize=1;strokeColor=none;fillColor=none;spacing=2;html=1;spacingTop=-1;" vertex="1" parent="p0p2ZywvvKNbMBUHe0Y9-5">
          <mxGeometry y="70" width="530" height="20" as="geometry" />
        </mxCell>
        <mxCell id="p0p2ZywvvKNbMBUHe0Y9-9" value="&lt;&lt; interface &gt;&gt;&#xa;UserService" style="swimlane;fontStyle=1;align=center;verticalAlign=middle;childLayout=stackLayout;horizontal=1;startSize=40;horizontalStack=0;resizeParent=1;resizeLast=0;collapsible=1;marginBottom=0;rounded=0;shadow=0;strokeWidth=1;" vertex="1" parent="1">
          <mxGeometry x="640" y="360" width="240" height="80" as="geometry">
            <mxRectangle x="560" y="20" width="170" height="26" as="alternateBounds" />
          </mxGeometry>
        </mxCell>
        <mxCell id="p0p2ZywvvKNbMBUHe0Y9-10" value="" style="line;html=1;strokeWidth=1;align=left;verticalAlign=middle;spacingTop=-1;spacingLeft=3;spacingRight=3;rotatable=0;labelPosition=right;points=[];portConstraint=eastwest;" vertex="1" parent="p0p2ZywvvKNbMBUHe0Y9-9">
          <mxGeometry y="40" width="240" height="20" as="geometry" />
        </mxCell>
        <mxCell id="p0p2ZywvvKNbMBUHe0Y9-11" value="&lt;p style=&quot;margin-top: 0pt; margin-bottom: 0pt; margin-left: 0in; direction: ltr; unicode-bidi: embed; word-break: normal;&quot;&gt;&lt;/p&gt;&lt;font face=&quot;Calibri&quot;&gt;+ getUsersOne ( userEmail :&lt;/font&gt;&lt;span style=&quot;font-family: Calibri;&quot;&gt;String&amp;nbsp;&lt;/span&gt;&lt;font face=&quot;Calibri&quot;&gt;) : Users&lt;/font&gt;&lt;font face=&quot;Calibri&quot;&gt;&lt;br&gt;&lt;/font&gt;" style="text;align=left;verticalAlign=middle;resizable=0;points=[];autosize=1;strokeColor=none;fillColor=none;spacing=2;html=1;spacingTop=-1;" vertex="1" parent="p0p2ZywvvKNbMBUHe0Y9-9">
          <mxGeometry y="60" width="240" height="20" as="geometry" />
        </mxCell>
        <mxCell id="p0p2ZywvvKNbMBUHe0Y9-16" style="edgeStyle=orthogonalEdgeStyle;rounded=0;orthogonalLoop=1;jettySize=auto;html=1;exitX=0.5;exitY=0;exitDx=0;exitDy=0;entryX=0.5;entryY=1;entryDx=0;entryDy=0;entryPerimeter=0;dashed=1;" edge="1" parent="1" source="p0p2ZywvvKNbMBUHe0Y9-17" target="p0p2ZywvvKNbMBUHe0Y9-11">
          <mxGeometry relative="1" as="geometry" />
        </mxCell>
        <mxCell id="p0p2ZywvvKNbMBUHe0Y9-17" value="&lt;&lt; Service &gt;&gt;&#xa;UserServiceImpl" style="swimlane;fontStyle=1;align=center;verticalAlign=middle;childLayout=stackLayout;horizontal=1;startSize=40;horizontalStack=0;resizeParent=1;resizeLast=0;collapsible=1;marginBottom=0;rounded=0;shadow=0;strokeWidth=1;" vertex="1" parent="1">
          <mxGeometry x="640" y="510" width="240" height="90" as="geometry">
            <mxRectangle x="880" y="250" width="170" height="26" as="alternateBounds" />
          </mxGeometry>
        </mxCell>
        <mxCell id="p0p2ZywvvKNbMBUHe0Y9-18" value="-&amp;nbsp;usersRepository : UsersRepository" style="text;align=left;verticalAlign=middle;resizable=0;points=[];autosize=1;strokeColor=none;fillColor=none;spacing=2;spacingTop=1;spacingBottom=0;html=1;" vertex="1" parent="p0p2ZywvvKNbMBUHe0Y9-17">
          <mxGeometry y="40" width="240" height="20" as="geometry" />
        </mxCell>
        <mxCell id="p0p2ZywvvKNbMBUHe0Y9-19" value="" style="line;html=1;strokeWidth=1;align=left;verticalAlign=middle;spacingTop=-1;spacingLeft=3;spacingRight=3;rotatable=0;labelPosition=right;points=[];portConstraint=eastwest;" vertex="1" parent="p0p2ZywvvKNbMBUHe0Y9-17">
          <mxGeometry y="60" width="240" height="10" as="geometry" />
        </mxCell>
        <mxCell id="p0p2ZywvvKNbMBUHe0Y9-20" value="&lt;p style=&quot;margin-top: 0pt; margin-bottom: 0pt; margin-left: 0in; direction: ltr; unicode-bidi: embed; word-break: normal;&quot;&gt;&lt;/p&gt;&lt;font face=&quot;Calibri&quot;&gt;+ getUsersOne ( userEmail :&lt;/font&gt;&lt;span style=&quot;font-family: Calibri;&quot;&gt;String&amp;nbsp;&lt;/span&gt;&lt;font face=&quot;Calibri&quot;&gt;) : Users&lt;/font&gt;&lt;font face=&quot;Calibri&quot;&gt;&lt;br&gt;&lt;/font&gt;" style="text;align=left;verticalAlign=middle;resizable=0;points=[];autosize=1;strokeColor=none;fillColor=none;spacing=2;html=1;spacingTop=-1;" vertex="1" parent="p0p2ZywvvKNbMBUHe0Y9-17">
          <mxGeometry y="70" width="240" height="20" as="geometry" />
        </mxCell>
        <mxCell id="p0p2ZywvvKNbMBUHe0Y9-24" value="&lt;&lt; interface &gt;&gt;&#xa;UsersRepository" style="swimlane;fontStyle=1;align=center;verticalAlign=middle;childLayout=stackLayout;horizontal=1;startSize=40;horizontalStack=0;resizeParent=1;resizeLast=0;collapsible=1;marginBottom=0;rounded=0;shadow=0;strokeWidth=1;" vertex="1" parent="1">
          <mxGeometry x="640" y="680" width="240" height="90" as="geometry">
            <mxRectangle x="560" y="760" width="170" height="26" as="alternateBounds" />
          </mxGeometry>
        </mxCell>
        <mxCell id="p0p2ZywvvKNbMBUHe0Y9-25" value="" style="line;html=1;strokeWidth=1;align=left;verticalAlign=middle;spacingTop=-1;spacingLeft=3;spacingRight=3;rotatable=0;labelPosition=right;points=[];portConstraint=eastwest;" vertex="1" parent="p0p2ZywvvKNbMBUHe0Y9-24">
          <mxGeometry y="40" width="240" height="20" as="geometry" />
        </mxCell>
        <mxCell id="p0p2ZywvvKNbMBUHe0Y9-26" value="&lt;p style=&quot;margin-top: 0pt; margin-bottom: 0pt; margin-left: 0in; direction: ltr; unicode-bidi: embed; word-break: normal;&quot;&gt;&lt;/p&gt;&lt;font face=&quot;Calibri&quot;&gt;+ findByUserEmailLike ( email :&lt;/font&gt;&lt;span style=&quot;font-family: Calibri;&quot;&gt;String&amp;nbsp;&lt;/span&gt;&lt;font face=&quot;Calibri&quot;&gt;) :&amp;nbsp;&lt;/font&gt;&lt;span style=&quot;font-family: Calibri;&quot;&gt;Users&lt;br&gt;&lt;/span&gt;" style="text;align=left;verticalAlign=middle;resizable=0;points=[];autosize=1;strokeColor=none;fillColor=none;spacing=2;html=1;spacingTop=-1;" vertex="1" parent="p0p2ZywvvKNbMBUHe0Y9-24">
          <mxGeometry y="60" width="240" height="20" as="geometry" />
        </mxCell>
        <mxCell id="p0p2ZywvvKNbMBUHe0Y9-27" value="Users" style="swimlane;fontStyle=1;align=center;verticalAlign=middle;childLayout=stackLayout;horizontal=1;startSize=26;horizontalStack=0;resizeParent=1;resizeLast=0;collapsible=1;marginBottom=0;rounded=0;shadow=0;strokeWidth=1;" vertex="1" parent="1">
          <mxGeometry x="680" y="840" width="160" height="110" as="geometry">
            <mxRectangle x="130" y="380" width="160" height="26" as="alternateBounds" />
          </mxGeometry>
        </mxCell>
        <mxCell id="p0p2ZywvvKNbMBUHe0Y9-28" value="- userId : Integer&#xa;- userName : String&#xa;- userEmail : String&#xa;- password : String&#xa;- role : String" style="text;align=left;verticalAlign=top;spacingLeft=4;spacingRight=4;overflow=hidden;rotatable=0;points=[[0,0.5],[1,0.5]];portConstraint=eastwest;" vertex="1" parent="p0p2ZywvvKNbMBUHe0Y9-27">
          <mxGeometry y="26" width="160" height="74" as="geometry" />
        </mxCell>
        <mxCell id="p0p2ZywvvKNbMBUHe0Y9-29" value="" style="line;html=1;strokeWidth=1;align=left;verticalAlign=middle;spacingTop=-1;spacingLeft=3;spacingRight=3;rotatable=0;labelPosition=right;points=[];portConstraint=eastwest;" vertex="1" parent="p0p2ZywvvKNbMBUHe0Y9-27">
          <mxGeometry y="100" width="160" height="8" as="geometry" />
        </mxCell>
        <mxCell id="p0p2ZywvvKNbMBUHe0Y9-30" value="&lt;&lt; Controller&gt;&gt;&#xa;Categories" style="swimlane;fontStyle=1;align=center;verticalAlign=middle;childLayout=stackLayout;horizontal=1;startSize=40;horizontalStack=0;resizeParent=1;resizeLast=0;collapsible=1;marginBottom=0;rounded=0;shadow=0;strokeWidth=1;" vertex="1" parent="1">
          <mxGeometry x="40" y="360" width="240" height="100" as="geometry">
            <mxRectangle x="260" y="20" width="170" height="26" as="alternateBounds" />
          </mxGeometry>
        </mxCell>
        <mxCell id="p0p2ZywvvKNbMBUHe0Y9-31" value="&lt;p style=&quot;margin-top: 0pt; margin-bottom: 0pt; margin-left: 0in; direction: ltr; unicode-bidi: embed; word-break: normal;&quot;&gt;- categoryService :&amp;nbsp;CategoryService&lt;/p&gt;" style="text;align=left;verticalAlign=middle;resizable=0;points=[];autosize=1;strokeColor=none;fillColor=none;spacing=2;html=1;spacingTop=-1;" vertex="1" parent="p0p2ZywvvKNbMBUHe0Y9-30">
          <mxGeometry y="40" width="240" height="20" as="geometry" />
        </mxCell>
        <mxCell id="p0p2ZywvvKNbMBUHe0Y9-32" value="" style="line;html=1;strokeWidth=1;align=left;verticalAlign=middle;spacingTop=-1;spacingLeft=3;spacingRight=3;rotatable=0;labelPosition=right;points=[];portConstraint=eastwest;" vertex="1" parent="p0p2ZywvvKNbMBUHe0Y9-30">
          <mxGeometry y="60" width="240" height="10" as="geometry" />
        </mxCell>
        <mxCell id="p0p2ZywvvKNbMBUHe0Y9-33" value="&lt;p style=&quot;margin-top: 0pt; margin-bottom: 0pt; margin-left: 0in; direction: ltr; unicode-bidi: embed; word-break: normal;&quot;&gt;+&amp;nbsp;getCategoryAll ( model : Model ) : void&lt;/p&gt;" style="text;align=left;verticalAlign=middle;resizable=0;points=[];autosize=1;strokeColor=none;fillColor=none;spacing=2;html=1;spacingTop=-1;" vertex="1" parent="p0p2ZywvvKNbMBUHe0Y9-30">
          <mxGeometry y="70" width="240" height="20" as="geometry" />
        </mxCell>
        <mxCell id="p0p2ZywvvKNbMBUHe0Y9-34" value="&lt;&lt; Controller&gt;&gt;&#xa;UserController" style="swimlane;fontStyle=1;align=center;verticalAlign=middle;childLayout=stackLayout;horizontal=1;startSize=40;horizontalStack=0;resizeParent=1;resizeLast=0;collapsible=1;marginBottom=0;rounded=0;shadow=0;strokeWidth=1;" vertex="1" parent="1">
          <mxGeometry x="320" y="360" width="260" height="120" as="geometry">
            <mxRectangle x="260" y="20" width="170" height="26" as="alternateBounds" />
          </mxGeometry>
        </mxCell>
        <mxCell id="p0p2ZywvvKNbMBUHe0Y9-35" value="&lt;p style=&quot;margin-top: 0pt; margin-bottom: 0pt; margin-left: 0in; direction: ltr; unicode-bidi: embed; word-break: normal;&quot;&gt;&lt;span style=&quot;background-color: initial;&quot;&gt;-&amp;nbsp;userService :&amp;nbsp;UserService&lt;/span&gt;&lt;/p&gt;" style="text;align=left;verticalAlign=middle;resizable=0;points=[];autosize=1;strokeColor=none;fillColor=none;spacing=2;html=1;spacingTop=-1;" vertex="1" parent="p0p2ZywvvKNbMBUHe0Y9-34">
          <mxGeometry y="40" width="260" height="20" as="geometry" />
        </mxCell>
        <mxCell id="p0p2ZywvvKNbMBUHe0Y9-36" value="" style="line;html=1;strokeWidth=1;align=left;verticalAlign=middle;spacingTop=-1;spacingLeft=3;spacingRight=3;rotatable=0;labelPosition=right;points=[];portConstraint=eastwest;" vertex="1" parent="p0p2ZywvvKNbMBUHe0Y9-34">
          <mxGeometry y="60" width="260" height="10" as="geometry" />
        </mxCell>
        <mxCell id="p0p2ZywvvKNbMBUHe0Y9-37" value="&lt;p style=&quot;margin-top: 0pt; margin-bottom: 0pt; margin-left: 0in; direction: ltr; unicode-bidi: embed; word-break: normal;&quot;&gt;+&amp;nbsp;getAuthSecurityContextHolder() : String&lt;/p&gt;&lt;p style=&quot;margin-top: 0pt; margin-bottom: 0pt; margin-left: 0in; direction: ltr; unicode-bidi: embed; word-break: normal;&quot;&gt;+&amp;nbsp;setModelUserName ( model : Model ) : void&lt;/p&gt;" style="text;align=left;verticalAlign=middle;resizable=0;points=[];autosize=1;strokeColor=none;fillColor=none;spacing=2;html=1;spacingTop=-1;" vertex="1" parent="p0p2ZywvvKNbMBUHe0Y9-34">
          <mxGeometry y="70" width="260" height="40" as="geometry" />
        </mxCell>
        <mxCell id="p0p2ZywvvKNbMBUHe0Y9-38" value="CartProduct" style="swimlane;fontStyle=1;align=center;verticalAlign=middle;childLayout=stackLayout;horizontal=1;startSize=26;horizontalStack=0;resizeParent=1;resizeLast=0;collapsible=1;marginBottom=0;rounded=0;shadow=0;strokeWidth=1;" vertex="1" parent="1">
          <mxGeometry x="1120" y="360" width="160" height="140" as="geometry">
            <mxRectangle x="130" y="380" width="160" height="26" as="alternateBounds" />
          </mxGeometry>
        </mxCell>
        <mxCell id="p0p2ZywvvKNbMBUHe0Y9-39" value="- productId : Integer&#xa;- productImage : String&#xa;--productName : String&#xa;- price : Integer&#xa;- quantity : Integer&#xa;- product_color : String&#xa;- mapListKey : Integer" style="text;align=left;verticalAlign=top;spacingLeft=4;spacingRight=4;overflow=hidden;rotatable=0;points=[[0,0.5],[1,0.5]];portConstraint=eastwest;" vertex="1" parent="p0p2ZywvvKNbMBUHe0Y9-38">
          <mxGeometry y="26" width="160" height="104" as="geometry" />
        </mxCell>
        <mxCell id="p0p2ZywvvKNbMBUHe0Y9-40" value="" style="line;html=1;strokeWidth=1;align=left;verticalAlign=middle;spacingTop=-1;spacingLeft=3;spacingRight=3;rotatable=0;labelPosition=right;points=[];portConstraint=eastwest;" vertex="1" parent="p0p2ZywvvKNbMBUHe0Y9-38">
          <mxGeometry y="130" width="160" height="8" as="geometry" />
        </mxCell>
        <mxCell id="p0p2ZywvvKNbMBUHe0Y9-41" value="Product" style="swimlane;fontStyle=1;align=center;verticalAlign=top;childLayout=stackLayout;horizontal=1;startSize=26;horizontalStack=0;resizeParent=1;resizeLast=0;collapsible=1;marginBottom=0;rounded=0;shadow=0;strokeWidth=1;" vertex="1" parent="1">
          <mxGeometry x="1370" y="880" width="160" height="130" as="geometry">
            <mxRectangle x="550" y="140" width="160" height="26" as="alternateBounds" />
          </mxGeometry>
        </mxCell>
        <mxCell id="p0p2ZywvvKNbMBUHe0Y9-42" value="- productId : Integer&#xa;- productImage : String&#xa;- productName : String&#xa;- productDescription : String&#xa;- price : Integer&#xa;- release : boolean" style="text;align=left;verticalAlign=top;spacingLeft=4;spacingRight=4;overflow=hidden;rotatable=0;points=[[0,0.5],[1,0.5]];portConstraint=eastwest;" vertex="1" parent="p0p2ZywvvKNbMBUHe0Y9-41">
          <mxGeometry y="26" width="160" height="94" as="geometry" />
        </mxCell>
        <mxCell id="p0p2ZywvvKNbMBUHe0Y9-43" value="" style="line;html=1;strokeWidth=1;align=left;verticalAlign=middle;spacingTop=-1;spacingLeft=3;spacingRight=3;rotatable=0;labelPosition=right;points=[];portConstraint=eastwest;" vertex="1" parent="p0p2ZywvvKNbMBUHe0Y9-41">
          <mxGeometry y="120" width="160" height="8" as="geometry" />
        </mxCell>
        <mxCell id="p0p2ZywvvKNbMBUHe0Y9-44" value="&lt;&lt; interface &gt;&gt;&#xa;ProductService" style="swimlane;fontStyle=1;align=center;verticalAlign=middle;childLayout=stackLayout;horizontal=1;startSize=40;horizontalStack=0;resizeParent=1;resizeLast=0;collapsible=1;marginBottom=0;rounded=0;shadow=0;strokeWidth=1;" vertex="1" parent="1">
          <mxGeometry x="1320" y="360" width="260" height="90" as="geometry">
            <mxRectangle x="260" y="20" width="170" height="26" as="alternateBounds" />
          </mxGeometry>
        </mxCell>
        <mxCell id="p0p2ZywvvKNbMBUHe0Y9-45" value="" style="line;html=1;strokeWidth=1;align=left;verticalAlign=middle;spacingTop=-1;spacingLeft=3;spacingRight=3;rotatable=0;labelPosition=right;points=[];portConstraint=eastwest;" vertex="1" parent="p0p2ZywvvKNbMBUHe0Y9-44">
          <mxGeometry y="40" width="260" height="20" as="geometry" />
        </mxCell>
        <mxCell id="p0p2ZywvvKNbMBUHe0Y9-46" value="&lt;p style=&quot;margin-top: 0pt; margin-bottom: 0pt; margin-left: 0in; direction: ltr; unicode-bidi: embed; word-break: normal;&quot;&gt;&lt;/p&gt;&lt;font face=&quot;Calibri&quot;&gt;+ getProductsOne ( productId :&amp;nbsp;&lt;/font&gt;&lt;span style=&quot;font-family: Calibri;&quot;&gt;Integer&amp;nbsp;&lt;/span&gt;&lt;font face=&quot;Calibri&quot;&gt;) : Product&lt;/font&gt;&lt;font face=&quot;Calibri&quot;&gt;&lt;br&gt;&lt;/font&gt;" style="text;align=left;verticalAlign=middle;resizable=0;points=[];autosize=1;strokeColor=none;fillColor=none;spacing=2;html=1;spacingTop=-1;" vertex="1" parent="p0p2ZywvvKNbMBUHe0Y9-44">
          <mxGeometry y="60" width="260" height="20" as="geometry" />
        </mxCell>
        <mxCell id="p0p2ZywvvKNbMBUHe0Y9-47" style="edgeStyle=orthogonalEdgeStyle;rounded=0;orthogonalLoop=1;jettySize=auto;html=1;exitX=0.5;exitY=0;exitDx=0;exitDy=0;entryX=0.5;entryY=1;entryDx=0;entryDy=0;dashed=1;" edge="1" parent="1" source="p0p2ZywvvKNbMBUHe0Y9-48" target="p0p2ZywvvKNbMBUHe0Y9-44">
          <mxGeometry relative="1" as="geometry" />
        </mxCell>
        <mxCell id="p0p2ZywvvKNbMBUHe0Y9-48" value="&lt;&lt; Service &gt;&gt;&#xa;ProductServiceImpl" style="swimlane;fontStyle=1;align=center;verticalAlign=middle;childLayout=stackLayout;horizontal=1;startSize=40;horizontalStack=0;resizeParent=1;resizeLast=0;collapsible=1;marginBottom=0;rounded=0;shadow=0;strokeWidth=1;" vertex="1" parent="1">
          <mxGeometry x="1320" y="530" width="260" height="100" as="geometry">
            <mxRectangle x="260" y="180" width="170" height="26" as="alternateBounds" />
          </mxGeometry>
        </mxCell>
        <mxCell id="p0p2ZywvvKNbMBUHe0Y9-49" value="- repository : ProductRepository" style="text;align=left;verticalAlign=middle;resizable=0;points=[];autosize=1;strokeColor=none;fillColor=none;spacing=2;spacingTop=1;spacingBottom=0;html=1;" vertex="1" parent="p0p2ZywvvKNbMBUHe0Y9-48">
          <mxGeometry y="40" width="260" height="20" as="geometry" />
        </mxCell>
        <mxCell id="p0p2ZywvvKNbMBUHe0Y9-50" value="" style="line;html=1;strokeWidth=1;align=left;verticalAlign=middle;spacingTop=-1;spacingLeft=3;spacingRight=3;rotatable=0;labelPosition=right;points=[];portConstraint=eastwest;" vertex="1" parent="p0p2ZywvvKNbMBUHe0Y9-48">
          <mxGeometry y="60" width="260" height="10" as="geometry" />
        </mxCell>
        <mxCell id="p0p2ZywvvKNbMBUHe0Y9-51" value="&lt;p style=&quot;margin-top: 0pt; margin-bottom: 0pt; margin-left: 0in; direction: ltr; unicode-bidi: embed; word-break: normal;&quot;&gt;&lt;font style=&quot;background-color: initial;&quot; face=&quot;Calibri&quot;&gt;+ getProductsOne ( productId :&amp;nbsp;&lt;/font&gt;&lt;span style=&quot;background-color: initial; font-family: Calibri;&quot;&gt;Integer&amp;nbsp;&lt;/span&gt;&lt;font style=&quot;background-color: initial;&quot; face=&quot;Calibri&quot;&gt;) : Product&lt;/font&gt;&lt;/p&gt;" style="text;align=left;verticalAlign=middle;resizable=0;points=[];autosize=1;strokeColor=none;fillColor=none;spacing=2;html=1;spacingTop=-1;" vertex="1" parent="p0p2ZywvvKNbMBUHe0Y9-48">
          <mxGeometry y="70" width="260" height="20" as="geometry" />
        </mxCell>
        <mxCell id="p0p2ZywvvKNbMBUHe0Y9-52" style="edgeStyle=orthogonalEdgeStyle;rounded=0;orthogonalLoop=1;jettySize=auto;html=1;exitX=0.5;exitY=0;exitDx=0;exitDy=0;entryX=0.5;entryY=1;entryDx=0;entryDy=0;endArrow=none;endFill=0;" edge="1" parent="1" source="p0p2ZywvvKNbMBUHe0Y9-53" target="p0p2ZywvvKNbMBUHe0Y9-48">
          <mxGeometry relative="1" as="geometry" />
        </mxCell>
        <mxCell id="p0p2ZywvvKNbMBUHe0Y9-53" value="&lt;&lt; interface &gt;&gt;&#xa;ProductRepository" style="swimlane;fontStyle=1;align=center;verticalAlign=middle;childLayout=stackLayout;horizontal=1;startSize=30;horizontalStack=0;resizeParent=1;resizeLast=0;collapsible=1;marginBottom=0;rounded=0;shadow=0;strokeWidth=1;" vertex="1" parent="1">
          <mxGeometry x="1375" y="720" width="150" height="60" as="geometry">
            <mxRectangle x="225" y="360" width="170" height="26" as="alternateBounds" />
          </mxGeometry>
        </mxCell>
        <mxCell id="p0p2ZywvvKNbMBUHe0Y9-54" value="" style="line;html=1;strokeWidth=1;align=left;verticalAlign=middle;spacingTop=-1;spacingLeft=3;spacingRight=3;rotatable=0;labelPosition=right;points=[];portConstraint=eastwest;" vertex="1" parent="p0p2ZywvvKNbMBUHe0Y9-53">
          <mxGeometry y="30" width="150" height="20" as="geometry" />
        </mxCell>
        <mxCell id="p0p2ZywvvKNbMBUHe0Y9-56" value="CartForm" style="swimlane;fontStyle=1;align=center;verticalAlign=middle;childLayout=stackLayout;horizontal=1;startSize=26;horizontalStack=0;resizeParent=1;resizeLast=0;collapsible=1;marginBottom=0;rounded=0;shadow=0;strokeWidth=1;" vertex="1" parent="1">
          <mxGeometry x="2280" y="360" width="160" height="90" as="geometry">
            <mxRectangle x="130" y="380" width="160" height="26" as="alternateBounds" />
          </mxGeometry>
        </mxCell>
        <mxCell id="p0p2ZywvvKNbMBUHe0Y9-57" value="- productId : Integer&#xa;- quantity : Integer&#xa;- product_color : String" style="text;align=left;verticalAlign=top;spacingLeft=4;spacingRight=4;overflow=hidden;rotatable=0;points=[[0,0.5],[1,0.5]];portConstraint=eastwest;" vertex="1" parent="p0p2ZywvvKNbMBUHe0Y9-56">
          <mxGeometry y="26" width="160" height="54" as="geometry" />
        </mxCell>
        <mxCell id="p0p2ZywvvKNbMBUHe0Y9-58" value="" style="line;html=1;strokeWidth=1;align=left;verticalAlign=middle;spacingTop=-1;spacingLeft=3;spacingRight=3;rotatable=0;labelPosition=right;points=[];portConstraint=eastwest;" vertex="1" parent="p0p2ZywvvKNbMBUHe0Y9-56">
          <mxGeometry y="80" width="160" height="8" as="geometry" />
        </mxCell>
        <mxCell id="p0p2ZywvvKNbMBUHe0Y9-59" value="&lt;&lt; interface &gt;&gt;&#xa;CategoryService" style="swimlane;fontStyle=1;align=center;verticalAlign=middle;childLayout=stackLayout;horizontal=1;startSize=40;horizontalStack=0;resizeParent=1;resizeLast=0;collapsible=1;marginBottom=0;rounded=0;shadow=0;strokeWidth=1;" vertex="1" parent="1">
          <mxGeometry x="67.5" y="540" width="185" height="80" as="geometry">
            <mxRectangle x="1260" y="20" width="170" height="26" as="alternateBounds" />
          </mxGeometry>
        </mxCell>
        <mxCell id="p0p2ZywvvKNbMBUHe0Y9-60" value="" style="line;html=1;strokeWidth=1;align=left;verticalAlign=middle;spacingTop=-1;spacingLeft=3;spacingRight=3;rotatable=0;labelPosition=right;points=[];portConstraint=eastwest;" vertex="1" parent="p0p2ZywvvKNbMBUHe0Y9-59">
          <mxGeometry y="40" width="185" height="20" as="geometry" />
        </mxCell>
        <mxCell id="p0p2ZywvvKNbMBUHe0Y9-61" value="&lt;p style=&quot;margin-top: 0pt; margin-bottom: 0pt; margin-left: 0in; direction: ltr; unicode-bidi: embed; word-break: normal;&quot;&gt;&lt;/p&gt;&lt;font face=&quot;Calibri&quot;&gt;+ getCategories () :&amp;nbsp;&lt;/font&gt;&lt;span style=&quot;font-family: Calibri;&quot;&gt;List&amp;lt;Category&amp;gt;&lt;/span&gt;&lt;font face=&quot;Calibri&quot;&gt;&lt;br&gt;&lt;/font&gt;" style="text;align=left;verticalAlign=middle;resizable=0;points=[];autosize=1;strokeColor=none;fillColor=none;spacing=2;html=1;spacingTop=-1;" vertex="1" parent="p0p2ZywvvKNbMBUHe0Y9-59">
          <mxGeometry y="60" width="185" height="20" as="geometry" />
        </mxCell>
        <mxCell id="p0p2ZywvvKNbMBUHe0Y9-62" style="edgeStyle=orthogonalEdgeStyle;rounded=0;orthogonalLoop=1;jettySize=auto;html=1;exitX=0.5;exitY=0;exitDx=0;exitDy=0;entryX=0.5;entryY=1.043;entryDx=0;entryDy=0;entryPerimeter=0;endArrow=classic;endFill=1;dashed=1;" edge="1" parent="1" source="p0p2ZywvvKNbMBUHe0Y9-63" target="p0p2ZywvvKNbMBUHe0Y9-61">
          <mxGeometry relative="1" as="geometry" />
        </mxCell>
        <mxCell id="p0p2ZywvvKNbMBUHe0Y9-63" value="&lt;&lt; Service &gt;&gt;&#xa;CategoryServiceImpl" style="swimlane;fontStyle=1;align=center;verticalAlign=middle;childLayout=stackLayout;horizontal=1;startSize=40;horizontalStack=0;resizeParent=1;resizeLast=0;collapsible=1;marginBottom=0;rounded=0;shadow=0;strokeWidth=1;" vertex="1" parent="1">
          <mxGeometry x="67.5" y="690" width="185" height="90" as="geometry">
            <mxRectangle x="1260" y="190" width="170" height="26" as="alternateBounds" />
          </mxGeometry>
        </mxCell>
        <mxCell id="p0p2ZywvvKNbMBUHe0Y9-64" value="&lt;p style=&quot;margin-top: 0pt; margin-bottom: 0pt; margin-left: 0in; direction: ltr; unicode-bidi: embed; word-break: normal;&quot;&gt;&lt;/p&gt;&lt;font face=&quot;Calibri&quot;&gt;- repository : CategoryRepository&lt;br&gt;&lt;/font&gt;" style="text;align=left;verticalAlign=middle;resizable=0;points=[];autosize=1;strokeColor=none;fillColor=none;spacing=2;html=1;spacingTop=-1;" vertex="1" parent="p0p2ZywvvKNbMBUHe0Y9-63">
          <mxGeometry y="40" width="185" height="20" as="geometry" />
        </mxCell>
        <mxCell id="p0p2ZywvvKNbMBUHe0Y9-65" value="" style="line;html=1;strokeWidth=1;align=left;verticalAlign=middle;spacingTop=-1;spacingLeft=3;spacingRight=3;rotatable=0;labelPosition=right;points=[];portConstraint=eastwest;" vertex="1" parent="p0p2ZywvvKNbMBUHe0Y9-63">
          <mxGeometry y="60" width="185" height="10" as="geometry" />
        </mxCell>
        <mxCell id="p0p2ZywvvKNbMBUHe0Y9-66" value="&lt;p style=&quot;margin-top: 0pt; margin-bottom: 0pt; margin-left: 0in; direction: ltr; unicode-bidi: embed; word-break: normal;&quot;&gt;&lt;/p&gt;&lt;font face=&quot;Calibri&quot;&gt;+ getCategories () :&amp;nbsp;&lt;/font&gt;&lt;span style=&quot;font-family: Calibri;&quot;&gt;List&amp;lt;Category&amp;gt;&lt;/span&gt;&lt;font face=&quot;Calibri&quot;&gt;&lt;br&gt;&lt;/font&gt;" style="text;align=left;verticalAlign=middle;resizable=0;points=[];autosize=1;strokeColor=none;fillColor=none;spacing=2;html=1;spacingTop=-1;" vertex="1" parent="p0p2ZywvvKNbMBUHe0Y9-63">
          <mxGeometry y="70" width="185" height="20" as="geometry" />
        </mxCell>
        <mxCell id="p0p2ZywvvKNbMBUHe0Y9-67" style="edgeStyle=orthogonalEdgeStyle;rounded=0;orthogonalLoop=1;jettySize=auto;html=1;exitX=0.5;exitY=0;exitDx=0;exitDy=0;entryX=0.499;entryY=0.999;entryDx=0;entryDy=0;entryPerimeter=0;endArrow=none;endFill=0;" edge="1" parent="1" source="p0p2ZywvvKNbMBUHe0Y9-68" target="p0p2ZywvvKNbMBUHe0Y9-66">
          <mxGeometry relative="1" as="geometry" />
        </mxCell>
        <mxCell id="p0p2ZywvvKNbMBUHe0Y9-68" value="&lt;&lt; interface &gt;&gt;&#xa;CategoryRepository" style="swimlane;fontStyle=1;align=center;verticalAlign=middle;childLayout=stackLayout;horizontal=1;startSize=40;horizontalStack=0;resizeParent=1;resizeLast=0;collapsible=1;marginBottom=0;rounded=0;shadow=0;strokeWidth=1;" vertex="1" parent="1">
          <mxGeometry x="80" y="840" width="160" height="70" as="geometry">
            <mxRectangle x="260" y="20" width="170" height="26" as="alternateBounds" />
          </mxGeometry>
        </mxCell>
        <mxCell id="p0p2ZywvvKNbMBUHe0Y9-69" value="" style="line;html=1;strokeWidth=1;align=left;verticalAlign=middle;spacingTop=-1;spacingLeft=3;spacingRight=3;rotatable=0;labelPosition=right;points=[];portConstraint=eastwest;" vertex="1" parent="p0p2ZywvvKNbMBUHe0Y9-68">
          <mxGeometry y="40" width="160" height="20" as="geometry" />
        </mxCell>
        <mxCell id="p0p2ZywvvKNbMBUHe0Y9-71" value="ProductOrder" style="swimlane;fontStyle=1;align=center;verticalAlign=middle;childLayout=stackLayout;horizontal=1;startSize=26;horizontalStack=0;resizeParent=1;resizeLast=0;collapsible=1;marginBottom=0;rounded=0;shadow=0;strokeWidth=1;" vertex="1" parent="1">
          <mxGeometry x="2520" y="360" width="160" height="100" as="geometry">
            <mxRectangle x="130" y="380" width="160" height="26" as="alternateBounds" />
          </mxGeometry>
        </mxCell>
        <mxCell id="p0p2ZywvvKNbMBUHe0Y9-72" value="- orderId : Integer&#xa;- userId : Integer&#xa;- orderDate : Date&#xa;- totalPrice : Integer" style="text;align=left;verticalAlign=top;spacingLeft=4;spacingRight=4;overflow=hidden;rotatable=0;points=[[0,0.5],[1,0.5]];portConstraint=eastwest;" vertex="1" parent="p0p2ZywvvKNbMBUHe0Y9-71">
          <mxGeometry y="26" width="160" height="64" as="geometry" />
        </mxCell>
        <mxCell id="p0p2ZywvvKNbMBUHe0Y9-73" value="" style="line;html=1;strokeWidth=1;align=left;verticalAlign=middle;spacingTop=-1;spacingLeft=3;spacingRight=3;rotatable=0;labelPosition=right;points=[];portConstraint=eastwest;" vertex="1" parent="p0p2ZywvvKNbMBUHe0Y9-71">
          <mxGeometry y="90" width="160" height="8" as="geometry" />
        </mxCell>
        <mxCell id="p0p2ZywvvKNbMBUHe0Y9-74" value="&lt;&lt; interface &gt;&gt;&#xa;OrderService" style="swimlane;fontStyle=1;align=center;verticalAlign=middle;childLayout=stackLayout;horizontal=1;startSize=40;horizontalStack=0;resizeParent=1;resizeLast=0;collapsible=1;marginBottom=0;rounded=0;shadow=0;strokeWidth=1;" vertex="1" parent="1">
          <mxGeometry x="2720" y="360" width="310.06" height="100" as="geometry">
            <mxRectangle x="260" y="20" width="170" height="26" as="alternateBounds" />
          </mxGeometry>
        </mxCell>
        <mxCell id="p0p2ZywvvKNbMBUHe0Y9-75" value="" style="line;html=1;strokeWidth=1;align=left;verticalAlign=middle;spacingTop=-1;spacingLeft=3;spacingRight=3;rotatable=0;labelPosition=right;points=[];portConstraint=eastwest;" vertex="1" parent="p0p2ZywvvKNbMBUHe0Y9-74">
          <mxGeometry y="40" width="310.06" height="20" as="geometry" />
        </mxCell>
        <mxCell id="p0p2ZywvvKNbMBUHe0Y9-76" value="&lt;p style=&quot;margin-top: 0pt; margin-bottom: 0pt; margin-left: 0in; direction: ltr; unicode-bidi: embed; word-break: normal;&quot;&gt;&lt;/p&gt;&lt;font face=&quot;Calibri&quot;&gt;+ postProductOrder ( productOrder :&lt;/font&gt;&lt;span style=&quot;font-family: Calibri;&quot;&gt;ProductOrder&amp;nbsp;&lt;/span&gt;&lt;font face=&quot;Calibri&quot;&gt;) : Integer&lt;br&gt;+ postOrderDetail ( orderDetail :&lt;/font&gt;&lt;span style=&quot;font-family: Calibri;&quot;&gt;OrderDetail&amp;nbsp;&lt;/span&gt;&lt;font face=&quot;Calibri&quot;&gt;) : void&lt;/font&gt;&lt;font face=&quot;Calibri&quot;&gt;&lt;br&gt;&lt;/font&gt;" style="text;align=left;verticalAlign=middle;resizable=0;points=[];autosize=1;strokeColor=none;fillColor=none;spacing=2;html=1;spacingTop=-1;" vertex="1" parent="p0p2ZywvvKNbMBUHe0Y9-74">
          <mxGeometry y="60" width="310.06" height="40" as="geometry" />
        </mxCell>
        <mxCell id="p0p2ZywvvKNbMBUHe0Y9-77" style="edgeStyle=orthogonalEdgeStyle;rounded=0;orthogonalLoop=1;jettySize=auto;html=1;exitX=0.5;exitY=0;exitDx=0;exitDy=0;entryX=0.5;entryY=1;entryDx=0;entryDy=0;entryPerimeter=0;dashed=1;endArrow=classic;endFill=1;" edge="1" parent="1" source="p0p2ZywvvKNbMBUHe0Y9-78" target="p0p2ZywvvKNbMBUHe0Y9-76">
          <mxGeometry relative="1" as="geometry" />
        </mxCell>
        <mxCell id="p0p2ZywvvKNbMBUHe0Y9-78" value="&lt;&lt; Service &gt;&gt;&#xa;OrderServiceImpl" style="swimlane;fontStyle=1;align=center;verticalAlign=middle;childLayout=stackLayout;horizontal=1;startSize=40;horizontalStack=0;resizeParent=1;resizeLast=0;collapsible=1;marginBottom=0;rounded=0;shadow=0;strokeWidth=1;" vertex="1" parent="1">
          <mxGeometry x="2720" y="520" width="310.06" height="140" as="geometry">
            <mxRectangle x="1950" y="250" width="170" height="26" as="alternateBounds" />
          </mxGeometry>
        </mxCell>
        <mxCell id="p0p2ZywvvKNbMBUHe0Y9-79" value="&lt;p style=&quot;margin-top: 0pt; margin-bottom: 0pt; margin-left: 0in; direction: ltr; unicode-bidi: embed; word-break: normal;&quot;&gt;&lt;/p&gt;&lt;font face=&quot;Calibri&quot;&gt;- productOrderRepository&amp;nbsp;: ProductOrderRepository&lt;br&gt;- orderDetailRepository : OrderDetailRepository&lt;br&gt;&lt;/font&gt;" style="text;align=left;verticalAlign=middle;resizable=0;points=[];autosize=1;strokeColor=none;fillColor=none;spacing=2;html=1;spacingTop=-1;" vertex="1" parent="p0p2ZywvvKNbMBUHe0Y9-78">
          <mxGeometry y="40" width="310.06" height="40" as="geometry" />
        </mxCell>
        <mxCell id="p0p2ZywvvKNbMBUHe0Y9-80" value="" style="line;html=1;strokeWidth=1;align=left;verticalAlign=middle;spacingTop=-1;spacingLeft=3;spacingRight=3;rotatable=0;labelPosition=right;points=[];portConstraint=eastwest;" vertex="1" parent="p0p2ZywvvKNbMBUHe0Y9-78">
          <mxGeometry y="80" width="310.06" height="10" as="geometry" />
        </mxCell>
        <mxCell id="p0p2ZywvvKNbMBUHe0Y9-81" value="&lt;p style=&quot;margin-top: 0pt; margin-bottom: 0pt; margin-left: 0in; direction: ltr; unicode-bidi: embed; word-break: normal;&quot;&gt;&lt;/p&gt;&lt;font face=&quot;Calibri&quot;&gt;+ postProductOrder ( productOrder :&lt;/font&gt;&lt;span style=&quot;font-family: Calibri;&quot;&gt;ProductOrder&amp;nbsp;&lt;/span&gt;&lt;font face=&quot;Calibri&quot;&gt;) : Integer&lt;br&gt;+ postOrderDetail ( orderDetail :&lt;/font&gt;&lt;span style=&quot;font-family: Calibri;&quot;&gt;OrderDetail&amp;nbsp;&lt;/span&gt;&lt;font face=&quot;Calibri&quot;&gt;) : void&lt;/font&gt;&lt;font face=&quot;Calibri&quot;&gt;&lt;br&gt;&lt;/font&gt;" style="text;align=left;verticalAlign=middle;resizable=0;points=[];autosize=1;strokeColor=none;fillColor=none;spacing=2;html=1;spacingTop=-1;" vertex="1" parent="p0p2ZywvvKNbMBUHe0Y9-78">
          <mxGeometry y="90" width="310.06" height="40" as="geometry" />
        </mxCell>
        <mxCell id="p0p2ZywvvKNbMBUHe0Y9-83" value="&lt;&lt; interface &gt;&gt;&#xa;OrderDetailRepository" style="swimlane;fontStyle=1;align=center;verticalAlign=middle;childLayout=stackLayout;horizontal=1;startSize=40;horizontalStack=0;resizeParent=1;resizeLast=0;collapsible=1;marginBottom=0;rounded=0;shadow=0;strokeWidth=1;" vertex="1" parent="1">
          <mxGeometry x="2799.97" y="720" width="150.12" height="70" as="geometry">
            <mxRectangle x="260" y="20" width="170" height="26" as="alternateBounds" />
          </mxGeometry>
        </mxCell>
        <mxCell id="p0p2ZywvvKNbMBUHe0Y9-84" value="" style="line;html=1;strokeWidth=1;align=left;verticalAlign=middle;spacingTop=-1;spacingLeft=3;spacingRight=3;rotatable=0;labelPosition=right;points=[];portConstraint=eastwest;" vertex="1" parent="p0p2ZywvvKNbMBUHe0Y9-83">
          <mxGeometry y="40" width="150.12" height="20" as="geometry" />
        </mxCell>
        <mxCell id="p0p2ZywvvKNbMBUHe0Y9-87" value="&lt;&lt; interface &gt;&gt;&#xa;ProductOrderRepository" style="swimlane;fontStyle=1;align=center;verticalAlign=middle;childLayout=stackLayout;horizontal=1;startSize=40;horizontalStack=0;resizeParent=1;resizeLast=0;collapsible=1;marginBottom=0;rounded=0;shadow=0;strokeWidth=1;" vertex="1" parent="1">
          <mxGeometry x="2789.97" y="840" width="170.12" height="70" as="geometry">
            <mxRectangle x="260" y="20" width="170" height="26" as="alternateBounds" />
          </mxGeometry>
        </mxCell>
        <mxCell id="p0p2ZywvvKNbMBUHe0Y9-88" value="" style="line;html=1;strokeWidth=1;align=left;verticalAlign=middle;spacingTop=-1;spacingLeft=3;spacingRight=3;rotatable=0;labelPosition=right;points=[];portConstraint=eastwest;" vertex="1" parent="p0p2ZywvvKNbMBUHe0Y9-87">
          <mxGeometry y="40" width="170.12" height="20" as="geometry" />
        </mxCell>
        <mxCell id="p0p2ZywvvKNbMBUHe0Y9-90" value="CartSession" style="swimlane;fontStyle=1;align=center;verticalAlign=middle;childLayout=stackLayout;horizontal=1;startSize=26;horizontalStack=0;resizeParent=1;resizeLast=0;collapsible=1;marginBottom=0;rounded=0;shadow=0;strokeWidth=1;" vertex="1" parent="1">
          <mxGeometry x="920" y="360" width="160" height="90" as="geometry">
            <mxRectangle x="130" y="380" width="160" height="26" as="alternateBounds" />
          </mxGeometry>
        </mxCell>
        <mxCell id="p0p2ZywvvKNbMBUHe0Y9-91" value="- productId : Integer&#xa;- quantity : Integer&#xa;- product_color : String" style="text;align=left;verticalAlign=top;spacingLeft=4;spacingRight=4;overflow=hidden;rotatable=0;points=[[0,0.5],[1,0.5]];portConstraint=eastwest;" vertex="1" parent="p0p2ZywvvKNbMBUHe0Y9-90">
          <mxGeometry y="26" width="160" height="54" as="geometry" />
        </mxCell>
        <mxCell id="p0p2ZywvvKNbMBUHe0Y9-92" value="" style="line;html=1;strokeWidth=1;align=left;verticalAlign=middle;spacingTop=-1;spacingLeft=3;spacingRight=3;rotatable=0;labelPosition=right;points=[];portConstraint=eastwest;" vertex="1" parent="p0p2ZywvvKNbMBUHe0Y9-90">
          <mxGeometry y="80" width="160" height="8" as="geometry" />
        </mxCell>
      </root>
    </mxGraphModel>
  </diagram>
</mxfile>
